<svg width="352" height="71" viewBox="0 0 352 71" fill="none" xmlns="http://www.w3.org/2000/svg">
<path d="M139.72 39.0693H134.818V50H128.666V20.1406H139.761C143.288 20.1406 146.009 20.9268 147.923 22.499C149.837 24.0713 150.794 26.293 150.794 29.1641C150.794 31.2012 150.35 32.9033 149.461 34.2705C148.586 35.624 147.253 36.7041 145.462 37.5107L151.922 49.7129V50H145.318L139.72 39.0693ZM134.818 34.0859H139.781C141.326 34.0859 142.522 33.6963 143.37 32.917C144.218 32.124 144.642 31.0371 144.642 29.6562C144.642 28.248 144.238 27.1406 143.432 26.334C142.639 25.5273 141.415 25.124 139.761 25.124H134.818V34.0859ZM173.455 37.0596H161.643V45.0576H175.506V50H155.49V20.1406H175.465V25.124H161.643V32.2402H173.455V37.0596ZM202.556 40.0537C202.323 43.2666 201.134 45.7959 198.987 47.6416C196.854 49.4873 194.038 50.4102 190.538 50.4102C186.71 50.4102 183.695 49.125 181.494 46.5547C179.307 43.9707 178.213 40.4297 178.213 35.9316V34.1064C178.213 31.2354 178.719 28.7061 179.73 26.5186C180.742 24.3311 182.185 22.6562 184.058 21.4941C185.944 20.3184 188.132 19.7305 190.62 19.7305C194.065 19.7305 196.841 20.6533 198.946 22.499C201.052 24.3447 202.269 26.9355 202.597 30.2715H196.444C196.294 28.3438 195.754 26.9492 194.824 26.0879C193.908 25.2129 192.507 24.7754 190.62 24.7754C188.569 24.7754 187.031 25.5137 186.006 26.9902C184.994 28.4531 184.475 30.7295 184.447 33.8193V36.0752C184.447 39.3018 184.933 41.6602 185.903 43.1504C186.888 44.6406 188.433 45.3857 190.538 45.3857C192.438 45.3857 193.854 44.9551 194.783 44.0938C195.727 43.2188 196.267 41.8721 196.403 40.0537H202.556ZM231.123 35.7471C231.123 38.6865 230.604 41.2637 229.564 43.4785C228.525 45.6934 227.035 47.4023 225.094 48.6055C223.166 49.8086 220.951 50.4102 218.449 50.4102C215.975 50.4102 213.767 49.8154 211.825 48.626C209.884 47.4365 208.38 45.7412 207.313 43.54C206.247 41.3252 205.707 38.7822 205.693 35.9111V34.4346C205.693 31.4951 206.22 28.9111 207.272 26.6826C208.339 24.4404 209.836 22.7246 211.764 21.5352C213.705 20.332 215.92 19.7305 218.408 19.7305C220.896 19.7305 223.104 20.332 225.032 21.5352C226.974 22.7246 228.471 24.4404 229.523 26.6826C230.59 28.9111 231.123 31.4883 231.123 34.4141V35.7471ZM224.889 34.3936C224.889 31.2627 224.328 28.8838 223.207 27.2568C222.086 25.6299 220.486 24.8164 218.408 24.8164C216.344 24.8164 214.751 25.623 213.63 27.2363C212.509 28.8359 211.941 31.1875 211.928 34.291V35.7471C211.928 38.7959 212.488 41.1611 213.609 42.8428C214.73 44.5244 216.344 45.3652 218.449 45.3652C220.514 45.3652 222.1 44.5586 223.207 42.9453C224.314 41.3184 224.875 38.9531 224.889 35.8496V34.3936Z" fill="#DA5656"/>
<path d="M235.594 50V20.1406H246.053C249.676 20.1406 252.424 20.8379 254.297 22.2324C256.17 23.6133 257.106 25.6436 257.106 28.3232C257.106 29.7861 256.73 31.0781 255.979 32.1992C255.227 33.3066 254.181 34.1201 252.841 34.6396C254.372 35.0225 255.575 35.7949 256.45 36.957C257.339 38.1191 257.783 39.541 257.783 41.2227C257.783 44.0938 256.867 46.2676 255.035 47.7441C253.203 49.2207 250.592 49.9727 247.201 50H235.594ZM241.746 36.998V45.0576H247.017C248.466 45.0576 249.594 44.7158 250.4 44.0322C251.221 43.335 251.631 42.3779 251.631 41.1611C251.631 38.4268 250.216 37.0391 247.386 36.998H241.746ZM241.746 32.6504H246.299C249.402 32.5957 250.954 31.3584 250.954 28.9385C250.954 27.585 250.558 26.6143 249.765 26.0264C248.985 25.4248 247.748 25.124 246.053 25.124H241.746V32.6504ZM286.945 35.7471C286.945 38.6865 286.426 41.2637 285.387 43.4785C284.348 45.6934 282.857 47.4023 280.916 48.6055C278.988 49.8086 276.773 50.4102 274.271 50.4102C271.797 50.4102 269.589 49.8154 267.647 48.626C265.706 47.4365 264.202 45.7412 263.136 43.54C262.069 41.3252 261.529 38.7822 261.516 35.9111V34.4346C261.516 31.4951 262.042 28.9111 263.095 26.6826C264.161 24.4404 265.658 22.7246 267.586 21.5352C269.527 20.332 271.742 19.7305 274.23 19.7305C276.719 19.7305 278.927 20.332 280.854 21.5352C282.796 22.7246 284.293 24.4404 285.346 26.6826C286.412 28.9111 286.945 31.4883 286.945 34.4141V35.7471ZM280.711 34.3936C280.711 31.2627 280.15 28.8838 279.029 27.2568C277.908 25.6299 276.309 24.8164 274.23 24.8164C272.166 24.8164 270.573 25.623 269.452 27.2363C268.331 28.8359 267.764 31.1875 267.75 34.291V35.7471C267.75 38.7959 268.311 41.1611 269.432 42.8428C270.553 44.5244 272.166 45.3652 274.271 45.3652C276.336 45.3652 277.922 44.5586 279.029 42.9453C280.137 41.3184 280.697 38.9531 280.711 35.8496V34.3936ZM315.943 35.7471C315.943 38.6865 315.424 41.2637 314.385 43.4785C313.346 45.6934 311.855 47.4023 309.914 48.6055C307.986 49.8086 305.771 50.4102 303.27 50.4102C300.795 50.4102 298.587 49.8154 296.646 48.626C294.704 47.4365 293.2 45.7412 292.134 43.54C291.067 41.3252 290.527 38.7822 290.514 35.9111V34.4346C290.514 31.4951 291.04 28.9111 292.093 26.6826C293.159 24.4404 294.656 22.7246 296.584 21.5352C298.525 20.332 300.74 19.7305 303.229 19.7305C305.717 19.7305 307.925 20.332 309.853 21.5352C311.794 22.7246 313.291 24.4404 314.344 26.6826C315.41 28.9111 315.943 31.4883 315.943 34.4141V35.7471ZM309.709 34.3936C309.709 31.2627 309.148 28.8838 308.027 27.2568C306.906 25.6299 305.307 24.8164 303.229 24.8164C301.164 24.8164 299.571 25.623 298.45 27.2363C297.329 28.8359 296.762 31.1875 296.748 34.291V35.7471C296.748 38.7959 297.309 41.1611 298.43 42.8428C299.551 44.5244 301.164 45.3652 303.27 45.3652C305.334 45.3652 306.92 44.5586 308.027 42.9453C309.135 41.3184 309.695 38.9531 309.709 35.8496V34.3936ZM329.766 38.0234L326.566 41.4688V50H320.414V20.1406H326.566V33.6758L329.273 29.9639L336.882 20.1406H344.449L333.847 33.4092L344.757 50H337.436L329.766 38.0234Z" fill="white"/>
<ellipse cx="36" cy="35.5" rx="36" ry="35.5" fill="white"/>
<ellipse cx="84" cy="35.5" rx="36" ry="35.5" fill="#E34D4D"/>
</svg>
